Coordinates
version=1
nRows=10
nColumns=40
inDegrees=yes

Units are S.I. units (second, meters, Newtons, ...)
Angles are in degrees.

endheader
time	pelvis_tilt	pelvis_list	pelvis_rotation	pelvis_tx	pelvis_ty	pelvis_tz	hip_flexion_r	hip_adduction_r	hip_rotation_r	knee_angle_r	knee_angle_r_beta	ankle_angle_r	subtalar_angle_r	mtp_angle_r	hip_flexion_l	hip_adduction_l	hip_rotation_l	knee_angle_l	knee_angle_l_beta	ankle_angle_l	subtalar_angle_l	mtp_angle_l	lumbar_extension	lumbar_bending	lumbar_rotation	arm_flex_r	arm_add_r	arm_rot_r	elbow_flex_r	pro_sup_r	wrist_flex_r	wrist_dev_r	arm_flex_l	arm_add_l	arm_rot_l	elbow_flex_l	pro_sup_l	wrist_flex_l	wrist_dev_l
     23.77328571	     -4.39673469	     -5.21033474	      8.00341489	      1.06440777	      0.91931286	      0.47243060	      1.43578051	      3.04436323	    -19.01528800	     12.73519005	     12.73519005	     16.58419601	     -2.34161301	     -5.14564646	     30.16030494	     -6.97297953	     -1.16579597	     20.79576241	     20.79576241	      2.94974877	     -9.67760692	      2.61212069	     -9.57156712	      4.74193115	      4.26965096	     19.84856259	    -14.42498082	      6.51996072	     58.98237701	     44.70289076	      0.00000000	      0.00000000	     -2.77117466	     -8.56621267	     -7.13101079	     30.65872337	     46.20904890	      0.00000000	      0.00000000
     23.78657143	     -4.42313571	     -5.29494053	      7.88915884	      1.06601209	      0.91850416	      0.47070853	      1.05214219	      3.04271057	    -18.88936981	     12.87180881	     12.87180881	     16.81630337	     -2.35311144	     -5.20912562	     29.79460149	     -7.02646613	     -1.46488614	     21.10891823	     21.10891823	      2.46533076	     -9.82509993	      2.71593756	     -9.36445751	      4.71423633	      4.18652120	     19.42216980	    -13.97618500	      6.70422550	     58.88986451	     44.69798444	      0.00000000	      0.00000000	     -2.53205878	     -8.53569075	     -7.10615439	     30.76442846	     46.20850782	      0.00000000	      0.00000000
     23.79985714	     -4.35430080	     -5.27012348	      7.79479038	      1.06770171	      0.91805759	      0.46882684	      0.59917334	      2.90478403	    -18.70976063	     13.11724765	     13.11724765	     16.96477843	     -2.39494121	     -5.21446429	     29.38975927	     -6.97493553	     -1.59700522	     21.56420876	     21.56420876	      2.23351858	    -10.06830938	      2.63595986	     -9.24163231	      4.49820532	      4.15394813	     18.81482839	    -13.40359978	      6.96892481	     58.66345291	     44.69416650	      0.00000000	      0.00000000	     -2.19058894	     -8.53841262	     -7.07544640	     30.91585446	     46.20848878	      0.00000000	      0.00000000
     23.81314286	     -4.29726378	     -5.16859568	      7.68421525	      1.06913623	      0.91776168	      0.46666068	      0.47383460	      2.57643076	    -18.36241017	     14.01145673	     14.01145673	     17.65867466	     -2.77268118	     -3.77400821	     28.92112616	     -6.75141139	     -1.32308588	     21.78894212	     21.78894212	      1.15848628	    -11.24434327	      0.52976652	     -9.11723704	      4.20900093	      3.87783677	     19.08951482	    -12.83983247	      7.91208487	     56.44429327	     44.78032636	      0.00000000	      0.00000000	     -2.05388708	     -8.73907437	     -6.40953194	     31.29114745	     46.09113455	      0.00000000	      0.00000000
     23.82642857	     -4.20287773	     -5.08074500	      7.63628816	      1.07048618	      0.91785071	      0.46428502	      0.24752498	      2.25338746	    -18.23482501	     14.71861690	     14.71861690	     17.74383944	     -3.00974868	     -3.76992290	     28.59834422	     -6.60010786	     -1.24950239	     22.35278406	     22.35278406	      1.30954589	    -11.51454692	      0.35950925	     -9.10968979	      3.98299804	      3.89051491	     18.47196087	    -12.62393028	      8.12247200	     56.04007136	     44.78930151	      0.00000000	      0.00000000	     -1.53169674	     -8.78058050	     -6.34884727	     31.54901331	     46.08788918	      0.00000000	      0.00000000
     23.83971429	     -4.06439587	     -5.00719393	      7.67355553	      1.07179032	      0.91835696	      0.46166628	     -0.04255796	      1.95221233	    -18.15964086	     15.36699703	     15.36699703	     17.65560616	     -3.27089082	     -3.75392300	     28.20367728	     -6.41768612	     -1.05652415	     22.81871664	     22.81871664	      1.63346966	    -11.71859012	      0.18671567	     -9.15014675	      3.79976241	      3.72019795	     17.75585540	    -12.32657032	      8.31004287	     55.67119579	     44.79354470	      0.00000000	      0.00000000	     -1.00297084	     -8.83533614	     -6.31042638	     31.74117878	     46.08973052	      0.00000000	      0.00000000
     23.85300000	     -4.04278283	     -4.83665692	      7.58820624	      1.07270808	      0.91877464	      0.45894550	      0.29221281	      1.36039862	    -17.84462490	     16.96582250	     16.96582250	     17.70504787	     -4.02437905	     -3.83518640	     27.95597149	     -6.14021344	     -0.91978148	     23.34696565	     23.34696565	      2.08399334	    -12.11418129	      0.14116895	     -9.12058303	      3.50273616	      3.86213594	     17.20974127	    -12.36743461	      8.47437269	     54.83073966	     44.82052158	      0.00000000	      0.00000000	     -0.26090572	     -8.85831457	     -6.17529414	     31.97199158	     46.07949008	      0.00000000	      0.00000000
     23.86628571	     -4.04184861	     -4.70782973	      7.56185279	      1.07356887	      0.91945151	      0.45596864	      0.68164311	      0.80152180	    -17.54818730	     18.57554210	     18.57554210	     17.56554683	     -4.82378444	     -3.90788585	     27.65013998	     -5.85153561	     -0.74855145	     23.68760918	     23.68760918	      2.66373943	    -12.39378724	      0.23402934	     -9.03698004	      3.28086502	      3.82924591	     16.56252488	    -12.31546185	      8.63485069	     53.88034629	     44.85236339	      0.00000000	      0.00000000	      0.45459210	     -8.89902202	     -5.97157717	     32.12174735	     46.05887282	      0.00000000	      0.00000000
     23.87957143	     -3.87692845	     -4.58585729	      7.52703063	      1.07445519	      0.92047262	      0.45291700	      0.98429108	      0.23067085	    -17.29151523	     20.34079538	     20.34079538	     17.31382811	     -5.54720085	     -4.14224500	     27.14319799	     -5.61250665	     -0.66666414	     24.00016586	     24.00016586	      3.29850063	    -12.57047147	      0.21951873	     -9.16014792	      3.09247016	      3.75313667	     15.97546815	    -12.34426918	      8.74316034	     53.12066207	     44.87708643	      0.00000000	      0.00000000	      1.19933075	     -8.98155577	     -5.83335128	     32.34872625	     46.04919391	      0.00000000	      0.00000000
     23.89285714	     -3.90093025	     -4.45471697	      7.45402718	      1.07513191	      0.92131749	      0.44981025	      1.76489016	     -0.45328237	    -16.93433821	     22.57786587	     22.57786587	     16.92031252	     -6.53335845	     -4.61673030	     26.74424099	     -5.33616334	     -0.67244714	     24.13147134	     24.13147134	      3.94277923	    -12.67302240	      0.31223592	     -9.06576446	      2.88391644	      3.77529770	     15.26952463	    -12.43857117	      8.84803428	     52.14200104	     44.91045773	      0.00000000	      0.00000000	      1.91589737	     -9.04558320	     -5.64009352	     32.60621340	     46.03108627	      0.00000000	      0.00000000
